# xmcd
#
# Track frame offsets:
# 150
# 16106
# 30436
# 46476
# 65775
# 82527
# 98909
# 110501
# 124858
# 141891
# 156895
# 173526
#
# Disc length: 2507 seconds
#
#
# Revision: 0
# Processed by: cddbd v1.5.2PL0 Copyright (c) Steve Scherf et al.
# Submitted via: FreeRIP 2.951 
#
DISCID=8f09c90c
DTITLE=Toby Keith - How Do You Like Me Now
DYEAR=1900
DGENRE=Country
TTITLE0=How Do You Like Me Now
TTITLE1=When Love Fades
TTITLE2=Blue Bedroom
TTITLE3=New Orleans
TTITLE4=Country Comes To Town
TTITLE5=Stelen's Song
TTITLE6=She Only Get's That Way With Me
TTITLE7=Die With Your Boots On
TTITLE8=You Shouldn't Kiss Me Like This
TTITLE9=Hold You, Kiss You, Love You
TTITLE10=Do I Know You (Bottom Of My Heart)
TTITLE11=I Know A Wall When I See One
EXTD=
EXTT0=
EXTT1=
EXTT2=
EXTT3=
EXTT4=
EXTT5=
EXTT6=
EXTT7=
EXTT8=
EXTT9=
EXTT10=
EXTT11=
PLAYORDER=
